<svg width="1920" height="1153" viewBox="0 0 1920 1153" fill="none" xmlns="http://www.w3.org/2000/svg">
<circle cx="960" cy="540" r="540" fill="#F87575"/>
<path fill-rule="evenodd" clip-rule="evenodd" d="M780 343H810H840H900H1020H1140H1260H1320H1380C1380 533.565 1327.69 656.88 1260 736.678C1240.94 759.14 1220.67 778.154 1200 794.249C1180.12 809.727 1159.88 822.505 1140 833.055V883H960H780V833.055C760.122 822.505 739.878 809.727 720 794.249C699.33 778.154 679.055 759.14 660 736.678C592.306 656.88 540 533.565 540 343H600H660H720H780Z" fill="white"/>
<path d="M780 643.979L720 613L660 643.979H780Z" fill="#5C95FF"/>
<path d="M780 628.49L810 613L840 597.51H720L780 628.49Z" fill="#5C95FF"/>
<path d="M840 613L780 643.979H840V613Z" fill="#5C95FF"/>
<path d="M870 613H930L960 597.51H840L870 613Z" fill="#5C95FF"/>
<path d="M840 613V643.979H900L840 613Z" fill="#5C95FF"/>
<path d="M930 613H870L900 628.49L930 613Z" fill="#5C95FF"/>
<path d="M900 643.979H1020L960 613L900 643.979Z" fill="#5C95FF"/>
<path d="M1080 597.51H960L990 613H1050L1080 597.51Z" fill="#5C95FF"/>
<path d="M1050 613H990L1020 628.49L1050 613Z" fill="#5C95FF"/>
<path d="M1080 643.979V613L1020 643.979H1080Z" fill="#5C95FF"/>
<path d="M1080 643.979H1140L1080 613V643.979Z" fill="#5C95FF"/>
<path d="M1140 613H1170L1200 597.51H1080L1110 613H1140Z" fill="#5C95FF"/>
<path d="M1140 628.49V613H1110L1140 628.49Z" fill="#5C95FF"/>
<path d="M1170 613H1140V628.49L1170 613Z" fill="#5C95FF"/>
<path d="M1140 643.979H1200L1200 613L1140 643.979Z" fill="#5C95FF"/>
<path d="M1200 643.979H1260L1200 613L1200 643.979Z" fill="#5C95FF"/>
<path d="M1260 613H1290L1320 597.51H1200L1230 613H1260Z" fill="#5C95FF"/>
<path d="M1260 628.49L1260 613H1230L1260 628.49Z" fill="#5C95FF"/>
<path d="M1260 613L1260 628.49L1290 613H1260Z" fill="#5C95FF"/>
<path d="M1260 643.979H1320C1323.93 635.882 1327.72 627.511 1331.34 618.855L1320 613L1260 643.979Z" fill="#5C95FF"/>
<path d="M1336.49 606.027C1337.65 603.032 1338.82 599.961 1339.73 597.51L1320 597.51L1336.49 606.027Z" fill="#5C95FF"/>
<path d="M660 628.49L720 597.51H600L660 628.49Z" fill="#5C95FF"/>
<path d="M588.659 618.856C592.283 627.511 596.068 635.882 600 643.979H660L600 613L588.659 618.856Z" fill="#5C95FF"/>
<path d="M583.492 606.034L600 597.51H580.27C581.327 600.38 582.401 603.221 583.492 606.034Z" fill="#5C95FF"/>
<path d="M660 582.02V566.531H569.892C571.484 571.781 573.131 576.943 574.83 582.02H660Z" fill="#5C95FF"/>
<path d="M660 566.531V582.02H1345.17C1346.87 576.943 1348.52 571.781 1350.11 566.531H660Z" fill="#5C95FF"/>
<path d="M660 674.959V659.469H607.873C610.685 664.757 613.56 669.919 616.494 674.959H660Z" fill="#5C95FF"/>
<path d="M660 659.469V674.959H1303.51C1306.44 669.919 1309.32 664.757 1312.13 659.469H660Z" fill="#5C95FF"/>
<path d="M810 343H780L930 613L960 667L1140 343H1020L960 451L900 343H840H810Z" fill="#35495E"/>
<path fill-rule="evenodd" clip-rule="evenodd" d="M660 343L810 613L960 883L1020 775L1110 613L1260 343H1140L960 667L930 613L780 343H720H660Z" fill="#41B883"/>
</svg>
